# xmcd CD database file
#
# Track frame offsets:
#	187
#	13602
#	30622
#	43277
#	53692
#	67332
#	77032
#	92635
#	108252
#	121942
#	131815
#	147042
#
# Disc length: 2112 seconds
#
# Revision: 0
# Processed by: cddbd v1.5PL3 Copyright (c) Steve Scherf et al.
# Submitted via: CDex 1.51
#
DISCID=a3083e0c
DTITLE=山口由子 - Fessey Park Rd.
DYEAR=1998
DGENRE=JPop
TTITLE0=I feel so good
TTITLE1=Bikeに乗って 〜Fessey Park Rd.〜
TTITLE2=Bosh
TTITLE3=Dear J and K
TTITLE4=Angelika
TTITLE5=蒼い空
TTITLE6=Walking in the sunshine
TTITLE7=Jenny
TTITLE8=Pixie Herculon
TTITLE9=野バラ
TTITLE10=Getting to my soul and love
TTITLE11=ピアノ
EXTD=YEAR: 1998
EXTT0=
EXTT1=
EXTT2=
EXTT3=
EXTT4=
EXTT5=
EXTT6=
EXTT7=
EXTT8=
EXTT9=
EXTT10=
EXTT11=
PLAYORDER=
